<svg width="422" height="55" viewBox="0 0 422 55" fill="none" xmlns="http://www.w3.org/2000/svg">
<path d="M29.5 50C45.7924 50 59 38.8071 59 25C59 11.1929 45.7924 0 29.5 0C13.2076 0 0 11.1929 0 25C0 38.8071 13.2076 50 29.5 50Z" fill="#6BAF2F"/>
<path d="M33.1875 9.375C36.875 9.375 40.5625 12.5 40.5625 15.625C40.5625 18.75 36.875 21.875 29.5 21.875C22.125 21.875 18.4375 25 18.4375 28.125C18.4375 31.25 22.125 34.375 29.5 34.375C36.875 34.375 40.5625 31.25 40.5625 28.125" stroke="white" stroke-width="6" stroke-linecap="round"/>
<path d="M33.1875 6.25V43.75" stroke="white" stroke-width="6" stroke-linecap="round"/>
<path d="M83.6873 12.7754C84.8266 12.7754 85.9334 12.9707 87.0076 13.3613C88.1144 13.752 89.1723 14.3216 90.1814 15.0703C90.3442 15.2331 90.5232 15.3958 90.7186 15.5586C90.8813 15.3958 91.0603 15.2331 91.2557 15.0703C92.2648 14.3216 93.3064 13.752 94.3807 13.3613C95.4874 12.9707 96.5942 12.7754 97.701 12.7754C98.8403 12.7754 99.9471 12.9707 101.021 13.3613C102.128 13.752 103.17 14.3379 104.146 15.1191C105.155 15.8678 106.034 16.877 106.783 18.1465C107.564 19.416 107.955 20.9297 107.955 22.6875V40.3145C107.76 42.2676 106.685 43.3255 104.732 43.4883C103.821 43.4883 103.023 43.1953 102.34 42.6094C101.689 41.9909 101.363 41.2259 101.363 40.3145V23.0781C101.363 22.2969 101.217 21.6458 100.924 21.125C100.631 20.5716 100.305 20.1484 99.9471 19.8555C99.589 19.5299 99.2146 19.3021 98.824 19.1719C98.4334 19.0091 98.0428 18.9277 97.6521 18.9277C97.2615 18.9277 96.8709 19.0091 96.4803 19.1719C96.1222 19.3021 95.7641 19.5299 95.4061 19.8555C95.048 20.1484 94.7225 20.5716 94.4295 21.125C94.1365 21.6458 93.9738 22.2969 93.9412 23.0781V40.3145C93.7459 42.2676 92.6717 43.3255 90.7186 43.4883C89.8071 43.4883 89.0096 43.1953 88.326 42.6094C87.6749 41.9909 87.3494 41.2259 87.3494 40.3145V23.0781C87.3494 22.2969 87.2029 21.6458 86.91 21.125C86.617 20.5716 86.2915 20.1484 85.9334 19.8555C85.5753 19.5299 85.201 19.3021 84.8103 19.1719C84.4197 19.0091 84.0291 18.9277 83.6385 18.9277C83.2478 18.9277 82.8572 19.0091 82.4666 19.1719C82.1085 19.3021 81.7505 19.5299 81.3924 19.8555C81.0343 20.1484 80.7088 20.5716 80.4158 21.125C80.1228 21.6458 79.9601 22.2969 79.9275 23.0781V40.3145C79.7648 42.2676 78.7068 43.3255 76.7537 43.4883C75.8422 43.4883 75.0447 43.1953 74.3611 42.6094C73.7101 41.9909 73.3846 41.2259 73.3846 40.3145V22.6875C73.4497 20.9297 73.8566 19.416 74.6053 18.1465C75.354 16.877 76.2329 15.8678 77.242 15.1191C78.2511 14.3379 79.2928 13.752 80.367 13.3613C81.4738 12.9707 82.5805 12.7754 83.6873 12.7754ZM305.638 44.0254C304.531 44.0254 303.425 43.8301 302.318 43.4395C301.244 43.0488 300.202 42.4792 299.193 41.7305C298.184 40.9492 297.305 39.9238 296.556 38.6543C295.807 37.3848 295.4 35.8711 295.335 34.1133V16.4863C295.335 15.5749 295.661 14.8262 296.312 14.2402C296.995 13.6217 297.793 13.3125 298.704 13.3125C300.658 13.4753 301.716 14.5332 301.878 16.4863V33.7227C301.911 34.5039 302.074 35.1712 302.367 35.7246C302.66 36.2454 302.985 36.6686 303.343 36.9941C303.701 37.2871 304.059 37.515 304.417 37.6777C304.808 37.8079 305.199 37.873 305.589 37.873C305.98 37.873 306.37 37.8079 306.761 37.6777C307.152 37.515 307.526 37.2871 307.884 36.9941C308.242 36.6686 308.568 36.2454 308.861 35.7246C309.154 35.1712 309.3 34.5039 309.3 33.7227V16.4863C309.3 15.5749 309.626 14.8262 310.277 14.2402C310.96 13.6217 311.758 13.3125 312.669 13.3125C314.622 13.4753 315.697 14.5332 315.892 16.4863V33.7227C315.925 34.5039 316.087 35.1549 316.38 35.6758C316.673 36.2292 316.999 36.6686 317.357 36.9941C317.715 37.2871 318.073 37.515 318.431 37.6777C318.822 37.8079 319.212 37.873 319.603 37.873C319.994 37.873 320.384 37.8079 320.775 37.6777C321.165 37.515 321.54 37.2871 321.898 36.9941C322.256 36.6686 322.581 36.2454 322.874 35.7246C323.167 35.1712 323.314 34.5039 323.314 33.7227V16.4863C323.314 15.5749 323.639 14.8262 324.29 14.2402C324.974 13.6217 325.772 13.3125 326.683 13.3125C328.636 13.4753 329.71 14.5332 329.906 16.4863V34.1133C329.906 35.8711 329.515 37.3848 328.734 38.6543C327.985 39.9238 327.106 40.9492 326.097 41.7305C325.12 42.4792 324.079 43.0488 322.972 43.4395C321.898 43.8301 320.791 44.0254 319.652 44.0254C318.545 44.0254 317.438 43.8301 316.331 43.4395C315.257 43.0488 314.216 42.4629 313.206 41.6816C313.011 41.5514 312.832 41.4049 312.669 41.2422C312.474 41.4049 312.295 41.5514 312.132 41.6816C311.123 42.4629 310.065 43.0488 308.958 43.4395C307.884 43.8301 306.777 44.0254 305.638 44.0254Z" fill="#6BAF2F"/>
<path d="M124.927 42.9023C122.063 42.8047 119.898 42.1374 118.433 40.9004C116.968 39.6309 115.91 38.2148 115.259 36.6523C114.608 35.0573 114.283 33.446 114.283 31.8184C114.283 30.1257 114.592 28.498 115.21 26.9355C115.861 25.3405 116.919 23.9245 118.384 22.6875C119.882 21.418 121.77 20.7669 124.048 20.7344H139.869C142.147 20.7669 144.019 21.418 145.484 22.6875C146.981 23.9245 148.039 25.3405 148.658 26.9355C149.309 28.498 149.634 30.1257 149.634 31.8184C149.634 33.446 149.309 35.0573 148.658 36.6523C148.007 38.2148 146.949 39.6309 145.484 40.9004C144.019 42.1374 141.854 42.8047 138.99 42.9023H124.927ZM123.853 27.2773C123.234 27.2773 122.697 27.5378 122.242 28.0586C121.786 28.5469 121.444 29.1328 121.216 29.8164C121.021 30.4674 120.923 31.1185 120.923 31.7695C120.923 32.4531 121.021 33.1367 121.216 33.8203C121.444 34.4714 121.786 35.0573 122.242 35.5781C122.697 36.0664 123.234 36.3268 123.853 36.3594H140.064C140.682 36.3268 141.219 36.0664 141.675 35.5781C142.131 35.0573 142.456 34.4714 142.652 33.8203C142.88 33.1367 142.994 32.4531 142.994 31.7695C142.994 31.1185 142.88 30.4674 142.652 29.8164C142.456 29.1328 142.131 28.5469 141.675 28.0586C141.219 27.5378 140.682 27.2773 140.064 27.2773H123.853ZM171.538 20.002C173.231 20.002 174.891 20.1973 176.519 20.5879C178.179 20.9785 179.757 21.5645 181.255 22.3457C182.752 23.0944 184.071 24.1035 185.21 25.373C186.382 26.6426 187.017 28.1562 187.114 29.9141V31.9648V40.3145C186.919 42.2676 185.845 43.3255 183.892 43.4883C182.98 43.4883 182.183 43.1953 181.499 42.6094C180.848 41.9909 180.522 41.2259 180.522 40.3145V38.166V31.4277C180.457 30.4186 180.067 29.5885 179.351 28.9375C178.667 28.2539 177.886 27.7168 177.007 27.3262C176.16 26.9355 175.265 26.6426 174.321 26.4473C173.41 26.252 172.482 26.1543 171.538 26.1543C170.594 26.1543 169.65 26.252 168.706 26.4473C167.795 26.6426 166.899 26.9355 166.021 27.3262C165.174 27.7168 164.393 28.2539 163.677 28.9375C162.993 29.5885 162.619 30.4186 162.554 31.4277V38.166V40.3145C162.391 42.2676 161.333 43.3255 159.38 43.4883C158.468 43.4883 157.671 43.1953 156.987 42.6094C156.336 41.9909 156.011 41.2259 156.011 40.3145V31.9648V29.9141C156.108 28.1562 156.727 26.6426 157.866 25.373C159.006 24.1035 160.324 23.0944 161.821 22.3457C163.319 21.5645 164.881 20.9785 166.509 20.5879C168.169 20.1973 169.845 20.002 171.538 20.002ZM204.038 42.9023C201.173 42.8047 199.008 42.1374 197.544 40.9004C196.079 39.6309 195.021 38.2148 194.37 36.6523C193.719 35.0573 193.393 33.446 193.393 31.8184C193.393 30.1257 193.702 28.498 194.321 26.9355C194.972 25.3405 196.03 23.9245 197.495 22.6875C198.992 21.418 200.88 20.7669 203.159 20.7344H221.713C222.625 20.7344 223.39 21.0436 224.008 21.6621C224.659 22.248 224.985 22.9642 224.985 23.8105C224.985 24.6895 224.659 25.4382 224.008 26.0566C223.39 26.6426 222.625 26.9355 221.713 26.9355H203.452C202.736 26.9355 202.101 27.1797 201.547 27.668C201.027 28.1562 200.636 28.791 200.376 29.5723C200.148 30.3535 200.034 31.1185 200.034 31.8672C200.034 32.681 200.148 33.4785 200.376 34.2598C200.636 35.041 201.027 35.6758 201.547 36.1641C202.101 36.6198 202.736 36.8639 203.452 36.8965H221.713C222.625 36.8965 223.39 37.1895 224.008 37.7754C224.659 38.3613 224.985 39.0612 224.985 39.875C224.985 40.7214 224.659 41.4375 224.008 42.0234C223.39 42.6094 222.625 42.9023 221.713 42.9023H204.038ZM224.399 31.7207C224.399 32.3392 224.122 32.8763 223.569 33.332C223.081 33.7552 222.462 33.9668 221.713 33.9668H205.747C204.998 33.9668 204.363 33.7552 203.842 33.332C203.322 32.8763 203.061 32.3392 203.061 31.7207C203.061 31.1348 203.322 30.6139 203.842 30.1582C204.363 29.735 204.998 29.5234 205.747 29.5234H221.713C222.462 29.5234 223.097 29.7513 223.618 30.207C224.139 30.6302 224.399 31.1348 224.399 31.7207ZM234.584 20.1484C235.496 20.1484 236.277 20.4577 236.928 21.0762C237.579 21.6621 237.921 22.4108 237.953 23.3223V28.2539C237.921 29.5885 238.002 30.8255 238.197 31.9648C238.425 33.0716 238.946 34.0645 239.76 34.9434C240.574 35.8223 241.599 36.2943 242.836 36.3594H255.873V23.4199C255.873 22.5085 256.199 21.7598 256.85 21.1738C257.533 20.5553 258.331 20.2461 259.242 20.2461C261.196 20.4089 262.27 21.4668 262.465 23.4199V39.3379C262.465 41.9421 262.107 44.3997 261.391 46.7109C260.74 48.7617 259.666 50.487 258.168 51.8867C256.703 53.319 254.832 54.1003 252.553 54.2305H235.658C234.779 54.1979 234.031 53.8724 233.412 53.2539C232.826 52.668 232.517 51.9355 232.485 51.0566C232.485 50.1452 232.778 49.3639 233.363 48.7129C233.982 48.0618 234.747 47.7201 235.658 47.6875H250.893C252.13 47.6224 253.155 47.1504 253.969 46.2715C254.783 45.3926 255.304 44.3672 255.531 43.1953C255.564 43.0977 255.58 43 255.58 42.9023H241.176C238.897 42.7721 237.009 42.0072 235.512 40.6074C234.047 39.1751 232.989 37.4336 232.338 35.3828C231.72 33.332 231.394 31.151 231.362 28.8398V23.3223C231.394 22.4434 231.72 21.7109 232.338 21.125C232.957 20.5065 233.705 20.181 234.584 20.1484ZM340.384 20.2461C341.263 20.2786 342.011 20.6042 342.63 21.2227C343.248 21.8086 343.574 22.541 343.606 23.4199V40.3145C343.411 42.2676 342.337 43.3255 340.384 43.4883C339.472 43.4883 338.675 43.1953 337.991 42.6094C337.34 41.9909 337.015 41.2259 337.015 40.3145V23.4199C337.047 22.5085 337.389 21.7598 338.04 21.1738C338.691 20.5553 339.472 20.2461 340.384 20.2461ZM336.282 13.8984C336.282 12.987 336.673 12.2057 337.454 11.5547C338.235 10.9036 339.179 10.5781 340.286 10.5781C341.393 10.5781 342.337 10.9036 343.118 11.5547C343.899 12.2057 344.29 12.987 344.29 13.8984C344.29 14.8424 343.899 15.64 343.118 16.291C342.337 16.9421 341.393 17.2676 340.286 17.2676C339.179 17.2676 338.235 16.9421 337.454 16.291C336.673 15.64 336.282 14.8424 336.282 13.8984ZM381.282 23.5664C381.282 24.3802 380.956 25.0638 380.305 25.6172C379.687 26.138 378.922 26.3984 378.01 26.3984H357.356C356.933 26.3984 356.591 26.4798 356.331 26.6426C356.07 26.8053 355.875 26.9844 355.745 27.1797C355.615 27.3424 355.549 27.4889 355.549 27.6191C355.549 27.7819 355.615 27.9609 355.745 28.1562C355.875 28.319 356.07 28.4818 356.331 28.6445C356.591 28.7747 356.933 28.8561 357.356 28.8887H373.323C375.374 28.9212 377.066 29.3281 378.401 30.1094C379.736 30.8581 380.68 31.7533 381.233 32.7949C381.819 33.804 382.112 34.8294 382.112 35.8711C382.112 36.8802 381.819 37.9056 381.233 38.9473C380.647 39.9564 379.687 40.8516 378.352 41.6328C377.05 42.3815 375.374 42.7559 373.323 42.7559C372.965 42.7884 372.704 42.8047 372.542 42.8047H353.596C352.685 42.8047 351.904 42.5443 351.253 42.0234C350.634 41.4701 350.325 40.8027 350.325 40.0215C350.325 39.2077 350.65 38.5241 351.301 37.9707C351.92 37.4499 352.685 37.1895 353.596 37.1895H373.714C374.202 37.222 374.592 37.1569 374.885 36.9941C375.211 36.8314 375.455 36.6523 375.618 36.457C375.781 36.2617 375.862 36.0664 375.862 35.8711C375.862 35.7734 375.781 35.6107 375.618 35.3828C375.455 35.1224 375.211 34.9271 374.885 34.7969C374.592 34.6341 374.202 34.5365 373.714 34.5039H357.698C355.81 34.4714 354.247 34.0807 353.01 33.332C351.773 32.5508 350.894 31.6556 350.374 30.6465C349.853 29.6374 349.592 28.6283 349.592 27.6191C349.592 26.61 349.853 25.6172 350.374 24.6406C350.927 23.6315 351.806 22.7689 353.01 22.0527C354.247 21.304 355.81 20.8971 357.698 20.832C358.023 20.7995 358.268 20.7832 358.43 20.7832H378.01C378.922 20.7832 379.687 21.0599 380.305 21.6133C380.956 22.1341 381.282 22.7852 381.282 23.5664ZM398.254 42.9023C395.39 42.8047 393.225 42.1374 391.76 40.9004C390.295 39.6309 389.237 38.2148 388.586 36.6523C387.935 35.0573 387.61 33.446 387.61 31.8184C387.61 30.1257 387.919 28.498 388.537 26.9355C389.188 25.3405 390.246 23.9245 391.711 22.6875C393.209 21.418 395.097 20.7669 397.375 20.7344H415.93C416.841 20.7344 417.606 21.0436 418.225 21.6621C418.876 22.248 419.201 22.9642 419.201 23.8105C419.201 24.6895 418.876 25.4382 418.225 26.0566C417.606 26.6426 416.841 26.9355 415.93 26.9355H397.668C396.952 26.9355 396.317 27.1797 395.764 27.668C395.243 28.1562 394.852 28.791 394.592 29.5723C394.364 30.3535 394.25 31.1185 394.25 31.8672C394.25 32.681 394.364 33.4785 394.592 34.2598C394.852 35.041 395.243 35.6758 395.764 36.1641C396.317 36.6198 396.952 36.8639 397.668 36.8965H415.93C416.841 36.8965 417.606 37.1895 418.225 37.7754C418.876 38.3613 419.201 39.0612 419.201 39.875C419.201 40.7214 418.876 41.4375 418.225 42.0234C417.606 42.6094 416.841 42.9023 415.93 42.9023H398.254ZM418.615 31.7207C418.615 32.3392 418.339 32.8763 417.785 33.332C417.297 33.7552 416.679 33.9668 415.93 33.9668H399.963C399.214 33.9668 398.58 33.7552 398.059 33.332C397.538 32.8763 397.278 32.3392 397.278 31.7207C397.278 31.1348 397.538 30.6139 398.059 30.1582C398.58 29.735 399.214 29.5234 399.963 29.5234H415.93C416.679 29.5234 417.313 29.7513 417.834 30.207C418.355 30.6302 418.615 31.1348 418.615 31.7207Z" fill="black"/>
</svg>
